{
    "asset" : {
        "generator" : "Khronos glTF Blender I/O v1.6.16",
        "version" : "2.0"
    },
    "scene" : 0,
    "scenes" : [
        {
            "name" : "Scene",
            "nodes" : [
                0,
                1,
                2,
                3,
                4
            ]
        }
    ],
    "nodes" : [
        {
            "mesh" : 0,
            "name" : "Dado",
            "rotation" : [
                -0.14221978187561035,
                0.37842750549316406,
                0.9044024348258972,
                0.13646472990512848
            ],
            "scale" : [
                0.4885828197002411,
                0.4885828197002411,
                0.4885828197002411
            ],
            "translation" : [
                0.3134803771972656,
                0.8292319774627686,
                -3.758728504180908
            ]
        },
        {
            "name" : "Light",
            "rotation" : [
                0.16907575726509094,
                0.7558803558349609,
                -0.27217137813568115,
                0.570947527885437
            ],
            "translation" : [
                4.076245307922363,
                5.903861999511719,
                -1.0054539442062378
            ]
        },
        {
            "name" : "Camera",
            "rotation" : [
                -0.1961674988269806,
                -0.7876684665679932,
                0.48993387818336487,
                -0.31790176033973694
            ],
            "translation" : [
                5.4389543533325195,
                3.8309807777404785,
                -8.356223106384277
            ]
        },
        {
            "mesh" : 1,
            "name" : "Plane",
            "scale" : [
                8.175468444824219,
                8.175468444824219,
                8.175468444824219
            ],
            "translation" : [
                -2.9230408668518066,
                0,
                0.35840678215026855
            ]
        },
        {
            "mesh" : 2,
            "name" : "Dado.001",
            "scale" : [
                0.4885828197002411,
                0.4885828197002411,
                0.4885828197002411
            ],
            "translation" : [
                1.2208285331726074,
                0.5070254802703857,
                -2.6436069011688232
            ]
        }
    ],
    "materials" : [
        {
            "doubleSided" : true,
            "name" : "Dado",
            "pbrMetallicRoughness" : {
                "baseColorFactor" : [
                    0.955087423324585,
                    0.8153599500656128,
                    0.8153599500656128,
                    1
                ],
                "metallicFactor" : 0,
                "roughnessFactor" : 0.5
            }
        },
        {
            "doubleSided" : true,
            "name" : "numero",
            "pbrMetallicRoughness" : {
                "baseColorFactor" : [
                    0,
                    0,
                    0,
                    1
                ],
                "metallicFactor" : 0,
                "roughnessFactor" : 0.5
            }
        },
        {
            "doubleSided" : true,
            "name" : "Material.001",
            "pbrMetallicRoughness" : {
                "baseColorFactor" : [
                    1,
                    1,
                    1,
                    1
                ],
                "metallicFactor" : 0,
                "roughnessFactor" : 0.4000000059604645
            }
        },
        {
            "doubleSided" : true,
            "name" : "Dado.001",
            "pbrMetallicRoughness" : {
                "baseColorFactor" : [
                    0.955087423324585,
                    0,
                    0,
                    1
                ],
                "metallicFactor" : 0,
                "roughnessFactor" : 0.5
            }
        },
        {
            "doubleSided" : true,
            "name" : "numero.001",
            "pbrMetallicRoughness" : {
                "baseColorFactor" : [
                    0,
                    0,
                    0,
                    1
                ],
                "metallicFactor" : 0,
                "roughnessFactor" : 0.5
            }
        }
    ],
    "meshes" : [
        {
            "name" : "Cube",
            "primitives" : [
                {
                    "attributes" : {
                        "POSITION" : 0,
                        "NORMAL" : 1,
                        "TEXCOORD_0" : 2
                    },
                    "indices" : 3,
                    "material" : 0
                },
                {
                    "attributes" : {
                        "POSITION" : 4,
                        "NORMAL" : 5,
                        "TEXCOORD_0" : 6
                    },
                    "indices" : 7,
                    "material" : 1
                }
            ]
        },
        {
            "name" : "Plane",
            "primitives" : [
                {
                    "attributes" : {
                        "POSITION" : 8,
                        "NORMAL" : 9,
                        "TEXCOORD_0" : 10
                    },
                    "indices" : 11,
                    "material" : 2
                }
            ]
        },
        {
            "name" : "Cube.001",
            "primitives" : [
                {
                    "attributes" : {
                        "POSITION" : 12,
                        "NORMAL" : 13,
                        "TEXCOORD_0" : 14
                    },
                    "indices" : 3,
                    "material" : 3
                },
                {
                    "attributes" : {
                        "POSITION" : 15,
                        "NORMAL" : 16,
                        "TEXCOORD_0" : 17
                    },
                    "indices" : 7,
                    "material" : 4
                }
            ]
        }
    ],
    "accessors" : [
        {
            "bufferView" : 0,
            "componentType" : 5126,
            "count" : 6819,
            "max" : [
                1,
                1,
                1
            ],
            "min" : [
                -1,
                -1,
                -1
            ],
            "type" : "VEC3"
        },
        {
            "bufferView" : 1,
            "componentType" : 5126,
            "count" : 6819,
            "type" : "VEC3"
        },
        {
            "bufferView" : 2,
            "componentType" : 5126,
            "count" : 6819,
            "type" : "VEC2"
        },
        {
            "bufferView" : 3,
            "componentType" : 5123,
            "count" : 12696,
            "type" : "SCALAR"
        },
        {
            "bufferView" : 4,
            "componentType" : 5126,
            "count" : 499,
            "max" : [
                1,
                1,
                1
            ],
            "min" : [
                -1,
                -1,
                -1
            ],
            "type" : "VEC3"
        },
        {
            "bufferView" : 5,
            "componentType" : 5126,
            "count" : 499,
            "type" : "VEC3"
        },
        {
            "bufferView" : 6,
            "componentType" : 5126,
            "count" : 499,
            "type" : "VEC2"
        },
        {
            "bufferView" : 7,
            "componentType" : 5123,
            "count" : 504,
            "type" : "SCALAR"
        },
        {
            "bufferView" : 8,
            "componentType" : 5126,
            "count" : 4,
            "max" : [
                1,
                0,
                1
            ],
            "min" : [
                -1,
                0,
                -1
            ],
            "type" : "VEC3"
        },
        {
            "bufferView" : 9,
            "componentType" : 5126,
            "count" : 4,
            "type" : "VEC3"
        },
        {
            "bufferView" : 10,
            "componentType" : 5126,
            "count" : 4,
            "type" : "VEC2"
        },
        {
            "bufferView" : 11,
            "componentType" : 5123,
            "count" : 6,
            "type" : "SCALAR"
        },
        {
            "bufferView" : 12,
            "componentType" : 5126,
            "count" : 6819,
            "max" : [
                1,
                1,
                1
            ],
            "min" : [
                -1,
                -1,
                -1
            ],
            "type" : "VEC3"
        },
        {
            "bufferView" : 13,
            "componentType" : 5126,
            "count" : 6819,
            "type" : "VEC3"
        },
        {
            "bufferView" : 14,
            "componentType" : 5126,
            "count" : 6819,
            "type" : "VEC2"
        },
        {
            "bufferView" : 15,
            "componentType" : 5126,
            "count" : 499,
            "max" : [
                1,
                1,
                1
            ],
            "min" : [
                -1,
                -1,
                -1
            ],
            "type" : "VEC3"
        },
        {
            "bufferView" : 16,
            "componentType" : 5126,
            "count" : 499,
            "type" : "VEC3"
        },
        {
            "bufferView" : 17,
            "componentType" : 5126,
            "count" : 499,
            "type" : "VEC2"
        }
    ],
    "bufferViews" : [
        {
            "buffer" : 0,
            "byteLength" : 81828,
            "byteOffset" : 0
        },
        {
            "buffer" : 0,
            "byteLength" : 81828,
            "byteOffset" : 81828
        },
        {
            "buffer" : 0,
            "byteLength" : 54552,
            "byteOffset" : 163656
        },
        {
            "buffer" : 0,
            "byteLength" : 25392,
            "byteOffset" : 218208
        },
        {
            "buffer" : 0,
            "byteLength" : 5988,
            "byteOffset" : 243600
        },
        {
            "buffer" : 0,
            "byteLength" : 5988,
            "byteOffset" : 249588
        },
        {
            "buffer" : 0,
            "byteLength" : 3992,
            "byteOffset" : 255576
        },
        {
            "buffer" : 0,
            "byteLength" : 1008,
            "byteOffset" : 259568
        },
        {
            "buffer" : 0,
            "byteLength" : 48,
            "byteOffset" : 260576
        },
        {
            "buffer" : 0,
            "byteLength" : 48,
            "byteOffset" : 260624
        },
        {
            "buffer" : 0,
            "byteLength" : 32,
            "byteOffset" : 260672
        },
        {
            "buffer" : 0,
            "byteLength" : 12,
            "byteOffset" : 260704
        },
        {
            "buffer" : 0,
            "byteLength" : 81828,
            "byteOffset" : 260716
        },
        {
            "buffer" : 0,
            "byteLength" : 81828,
            "byteOffset" : 342544
        },
        {
            "buffer" : 0,
            "byteLength" : 54552,
            "byteOffset" : 424372
        },
        {
            "buffer" : 0,
            "byteLength" : 5988,
            "byteOffset" : 478924
        },
        {
            "buffer" : 0,
            "byteLength" : 5988,
            "byteOffset" : 484912
        },
        {
            "buffer" : 0,
            "byteLength" : 3992,
            "byteOffset" : 490900
        }
    ],
    "buffers" : [
        {
            "byteLength" : 494892,
            "uri" : "Dado.bin"
        }
    ]
}
